<mxfile host="app.diagrams.net" modified="2023-11-27T02:59:53.197Z" agent="Mozilla/5.0 (Windows NT 10.0; WOW64) AppleWebKit/537.36 (KHTML, like Gecko) Chrome/108.0.5359.125 Safari/537.36" version="22.1.4" etag="Pe0FeHvstMypKbgSPyru" type="github">
  <diagram name="第 1 页" id="ZvMwRLqp3Au2DSR3nX5a">
    <mxGraphModel>
      <root>
        <mxCell id="0" />
        <mxCell id="1" parent="0" />
      </root>
    </mxGraphModel>
  </diagram>
</mxfile>
